<svg xmlns="http://www.w3.org/2000/svg" enable-background="new 0 0 128 128" viewBox="0 0 128 128"><path fill="#efc71d" d="M25.9,77h76.1l19.9,32.3c0.9,1.5,1.4,3.3,1.4,5.1v0c0,5.3-4.3,9.6-9.6,9.6H99.9l-37.1-12.4L28.1,124H14.3
		c-5.3,0-9.6-4.3-9.6-9.6v0c0-1.8,0.5-3.5,1.4-5.1L25.9,77z"/><circle cx="64" cy="39" r="23" fill="#fff"/><path fill="#444b54" d="M64,65c-14.3,0-26-11.7-26-26s11.7-26,26-26s26,11.7,26,26S78.3,65,64,65z M64,19c-11,0-20,9-20,20s9,20,20,20
		s20-9,20-20S75,19,64,19z"/><path fill="#d3d8dd" d="M30,124l-4.3-41.4c-0.4-3.5,2.4-6.6,6-6.6h63.8c3.5,0,6.3,3,6,6.5L98,124H30z"/><circle cx="63" cy="99" r="6" fill="#fff"/><path fill="#444b54" d="M125.2 110c0 0-10.7-18.4-10.7-18.4-.8-1.4-2.7-1.9-4.1-1.1-1.4.8-1.9 2.7-1.1 4.1 0 0 10.8 18.6 10.8 18.6.5.8.8 1.7.8 2.7 0 2.8-2.2 5-5 5h-14.7l3.2-38.3c.2-2.5-.6-5-2.3-6.8S98 73 95.5 73H31.7c-2.5 0-5 1.1-6.7 3-1.7 1.9-2.5 4.4-2.3 7l4 38.1H12c-2.8 0-5-2.2-5-5 0-.9.3-1.8.7-2.6.1-.1 10.9-18.7 10.9-18.7.8-1.4.3-3.3-1.1-4.1-1.4-.8-3.3-.3-4.1 1.1L2.8 110c0 0 0 0 0 0-1.2 1.8-1.8 3.9-1.8 6 0 6.1 4.9 11 11 11h18v0c.1 0 .2 0 .3 0 1.6-.2 2.8-1.6 2.7-3.3l-4.3-41.4c-.1-.9.2-1.7.8-2.3.6-.6 1.4-1 2.2-1h63.8c.8 0 1.6.3 2.2 1 .6.6.9 1.4.8 2.3L95.2 121H58c-1.7 0-3 1.3-3 3s1.3 3 3 3h58c6.1 0 11-4.9 11-11C127 113.9 126.4 111.8 125.2 110zM87 36h-.2C85.3 24.7 75.7 16 64 16c-12.7 0-23 10.3-23 23h3l12.5-7.3c2-1.2 4.5.3 4.5 2.6V39c0 1.7 1.3 3 3 3h23c1.7 0 3-1.3 3-3S88.7 36 87 36z"/></svg>